<svg xmlns="http://www.w3.org/2000/svg" viewBox="0 0 24 24" fill="none">
  <path d="M22 8L17 8" stroke="#0d9488" stroke-width="2" stroke-linecap="round" stroke-linejoin="round"/>
  <path d="M2 8L7 8" stroke="#0d9488" stroke-width="2" stroke-linecap="round" stroke-linejoin="round"/>
  <path d="M16 12L16 16" stroke="#0d9488" stroke-width="2" stroke-linecap="round" stroke-linejoin="round"/>
  <path d="M8 12L8 16" stroke="#0d9488" stroke-width="2" stroke-linecap="round" stroke-linejoin="round"/>
  <path d="M16 7.5C16 6.12 14.88 5 13.5 5H10.5C9.12 5 8 6.12 8 7.5V8.5C8 9.88 9.12 11 10.5 11H13.5C14.88 11 16 9.88 16 8.5V7.5Z" stroke="#0d9488" stroke-width="2" stroke-linecap="round" stroke-linejoin="round"/>
  <path d="M17 16.5C17 17.88 15.88 19 14.5 19H9.5C8.12 19 7 17.88 7 16.5V15.5C7 14.12 8.12 13 9.5 13H14.5C15.88 13 17 14.12 17 15.5V16.5Z" stroke="#0d9488" stroke-width="2" stroke-linecap="round" stroke-linejoin="round"/>
</svg> 